<svg data-name="Layer 1" xmlns="http://www.w3.org/2000/svg" viewBox="0 0 28.14 35.03"><path d="M14 1.65A11.8 11.8 0 0 0 2 13.21a11.28 11.28 0 0 0 1.75 6l9.43 14a1 1 0 0 0 .83.44 1 1 0 0 0 .83-.44l9.44-14a11.32 11.32 0 0 0 1.72-6A11.8 11.8 0 0 0 14 1.65zm8.6 16.45L14 30.86 5.45 18.13A9.16 9.16 0 0 1 4 13.21a9.8 9.8 0 0 1 10-9.56 9.8 9.8 0 0 1 10 9.56 9.21 9.21 0 0 1-1.38 4.89zM14 7.67a5.6 5.6 0 0 0-5.68 5.5 5.6 5.6 0 0 0 5.68 5.5 5.6 5.6 0 0 0 5.69-5.5A5.6 5.6 0 0 0 14 7.67zm0 9a3.6 3.6 0 0 1-3.68-3.5A3.6 3.6 0 0 1 14 9.67a3.61 3.61 0 0 1 3.69 3.5 3.61 3.61 0 0 1-3.69 3.5z" fill="#31bba2"/><path d="M14 1.65A11.8 11.8 0 0 0 2 13.21a11.28 11.28 0 0 0 1.75 6l9.43 14a1 1 0 0 0 .83.44h0a1 1 0 0 0 .83-.44l9.44-14a11.32 11.32 0 0 0 1.72-6A11.8 11.8 0 0 0 14 1.65zm8.6 16.45L14 30.86 5.45 18.13A9.16 9.16 0 0 1 4 13.21a9.8 9.8 0 0 1 10-9.56 9.8 9.8 0 0 1 10 9.56 9.21 9.21 0 0 1-1.38 4.89zM14 7.67a5.6 5.6 0 0 0-5.68 5.5 5.6 5.6 0 0 0 5.68 5.5 5.6 5.6 0 0 0 5.69-5.5A5.6 5.6 0 0 0 14 7.67zm0 9a3.6 3.6 0 0 1-3.68-3.5A3.6 3.6 0 0 1 14 9.67a3.61 3.61 0 0 1 3.69 3.5 3.61 3.61 0 0 1-3.69 3.5z" fill="none" stroke="#31bba2" stroke-miterlimit="10"/></svg>