<svg id="Layer_1" data-name="Layer 1" xmlns="http://www.w3.org/2000/svg" viewBox="0 0 100.8 100.6"><defs><style>.cls-1{fill:#527fa4}</style></defs><path class="cls-1" d="M50.32 7.17a43 43 0 1 0 43 43 43.09 43.09 0 0 0-43-43zm21.93 63.36a1.6 1.6 0 0 1-1.58 1.61H30a1.61 1.61 0 0 1-1.58-1.61V29.85A1.6 1.6 0 0 1 30 28.27h40.67a1.58 1.58 0 0 1 1.58 1.58z"/><path class="cls-1" d="M50.32 59a8.77 8.77 0 1 0-8.75-8.78A8.77 8.77 0 0 0 50.32 59zM59.1 32.65h8.78v8.78H59.1z"/><path class="cls-1" d="M63.37 50.19a13 13 0 1 1-26.07 0 8.74 8.74 0 0 1 .27-2.19h-4.78v19.72h35.09V48h-4.81a8.31 8.31 0 0 1 .3 2.19z"/></svg>