<svg data-name="Layer 1" xmlns="http://www.w3.org/2000/svg" viewBox="0 0 36.18 35.03"><path d="M23.25 3H13A11 11 0 0 0 2.16 14.2a11.15 11.15 0 0 0 8.37 11v7.1a.63.63 0 0 0 .39.57.6.6 0 0 0 .27.06.69.69 0 0 0 .43-.16l8.64-7.28h3a11.05 11.05 0 0 0 10.8-11.29A11 11 0 0 0 23.25 3zm0 21.24H20a.66.66 0 0 0-.43.15l-7.74 6.52v-6.25a.64.64 0 0 0-.53-.62 9.85 9.85 0 0 1-7.83-9.84 9.76 9.76 0 0 1 9.5-10h10.28a9.76 9.76 0 0 1 9.5 10 9.77 9.77 0 0 1-9.5 10zm2.44-14.3H11a.63.63 0 1 0 0 1.26h14.69a.63.63 0 1 0 0-1.26zm0 4.15H11a.63.63 0 1 0 0 1.25h14.69a.63.63 0 1 0 0-1.25zm-7.49 4.14H11a.63.63 0 1 0 0 1.25h7.2a.63.63 0 1 0 0-1.25z" fill="#31bba2"/><path d="M23.25 3H13A11 11 0 0 0 2.16 14.2a11.15 11.15 0 0 0 8.37 11v7.1a.63.63 0 0 0 .39.57.6.6 0 0 0 .27.06.69.69 0 0 0 .43-.16l8.64-7.28h3a11.05 11.05 0 0 0 10.8-11.29A11 11 0 0 0 23.25 3zm0 21.24H20a.66.66 0 0 0-.43.15l-7.74 6.52v-6.25a.64.64 0 0 0-.53-.62 9.85 9.85 0 0 1-7.83-9.84 9.76 9.76 0 0 1 9.5-10h10.28a9.76 9.76 0 0 1 9.5 10 9.77 9.77 0 0 1-9.5 10zm2.44-14.3H11a.63.63 0 1 0 0 1.26h14.69a.63.63 0 1 0 0-1.26zm0 4.15H11a.63.63 0 1 0 0 1.25h14.69a.63.63 0 1 0 0-1.25zm-7.49 4.14H11a.63.63 0 1 0 0 1.25h7.2a.63.63 0 1 0 0-1.25z" fill="none" stroke="#31bba2" stroke-miterlimit="10"/></svg>