<svg data-name="Layer 1" xmlns="http://www.w3.org/2000/svg" viewBox="0 0 100.8 100.6"><path d="M50.52 7.82a43 43 0 1 0 43 43 43.09 43.09 0 0 0-43-43z" fill="#27aae1"/><path d="M78 35.66a21.69 21.69 0 0 1-6.17 1.69 10.74 10.74 0 0 0 4.72-5.94A21.39 21.39 0 0 1 69.73 34a10.75 10.75 0 0 0-18.59 7.36 10.86 10.86 0 0 0 .28 2.44 30.48 30.48 0 0 1-22.15-11.21 10.76 10.76 0 0 0 3.33 14.34 10.67 10.67 0 0 1-4.87-1.34v.13a10.75 10.75 0 0 0 8.62 10.54 10.56 10.56 0 0 1-2.83.38 11.27 11.27 0 0 1-2-.19 10.78 10.78 0 0 0 10 7.46 21.71 21.71 0 0 1-15.91 4.45 30.44 30.44 0 0 0 16.49 4.83c19.76 0 30.57-16.38 30.57-30.58v-1.39A21.8 21.8 0 0 0 78 35.66z" fill="#fff"/></svg>