<svg data-name="BENEFITS OF AUTOMATION" xmlns="http://www.w3.org/2000/svg" viewBox="0 0 53 49"><circle cx="28" cy="25.09" r="22.34" transform="rotate(-45 28.003 25.09)" fill="#158d78" data-name="Ellipse 2"/><path d="M44.73 21.94a22.61 22.61 0 0 1-11.62-5.17 22.61 22.61 0 0 1-11.62 5.17v1.12a23.44 23.44 0 0 0 7 17.13 25.2 25.2 0 0 0 4.61 3.7 25.2 25.2 0 0 0 4.61-3.7 23.44 23.44 0 0 0 7-17.13c.04-.38.04-.75.02-1.12z" fill="#fff" data-name="Shape 70"/><path d="M36.05 18.23l-5.47-5.47-.37.38a1.67 1.67 0 0 1-2.39 0l-.38-.38-4.3 4.31.75.75 3.59-3.58a2.71 2.71 0 0 0 3.07 0l4 4a2.8 2.8 0 0 0-.47 1.45 2.67 2.67 0 0 0 .47 1.62L22.7 33.23a2.71 2.71 0 0 0-3.07 0l-4-4a2.73 2.73 0 0 0 0-3.08l2.8-2.8-.76-.75-3.52 3.52.38.38a1.67 1.67 0 0 1 0 2.39l-.38.38 5.47 5.46.38-.37a1.66 1.66 0 0 1 2.38 0l.38.37 13.29-13.35-.38-.38a1.66 1.66 0 0 1-.5-1.24 1.76 1.76 0 0 1 .5-1.15zm-8.2 2l.76.76 1.57-1.58-.76-.75zM21.54 28l-.76-.75-1.57 1.57.76.75zM42 18.64L30.18 6.85a.54.54 0 0 0-.76 0l-5.9 5.91L20.77 10a4.09 4.09 0 0 0-3.54-1.74H4.67v1.07h12.56c1.35 0 1.8.37 2.77 1.42l2.76 2.77-2 2 .75.76L29.8 8l11 11-20.42 20.48-11-11L16 21.75l-.71-.75-1.42 1.41H11c-1.86 0-3.48-2.12-3.5-2.14l-.16-.21H4.67v1.06h2.1c.52.62 2.17 2.36 4.18 2.36h1.86l-4.59 4.59a.54.54 0 0 0 0 .76L20 40.62a.52.52 0 0 0 .38.15.51.51 0 0 0 .37-.15L42 19.39a.54.54 0 0 0 0-.75zm-20.59 5.49a3.29 3.29 0 1 0 3.28-3.29 3.28 3.28 0 0 0-3.28 3.29zm3.28-2.22a2.22 2.22 0 1 1-2.21 2.22 2.21 2.21 0 0 1 2.21-2.22zM17.2 19.8l-2.1-2.1h-2.58a2.37 2.37 0 0 1-2.61-2.61H8.85a3.41 3.41 0 0 0 3.67 3.68h2.14l1.81 1.81h.05a3.35 3.35 0 0 0 2.16.75 4 4 0 0 0 2.83-1.18 1.61 1.61 0 0 0 0-2.34l-6.29-6.28-.75.75 6.28 6.29c.11.1.38.37-.06.86a2.76 2.76 0 0 1-3.49.37z" fill-rule="evenodd" data-name="Shape 69"/></svg>