<svg id="BENEFITS_OF_AUTOMATION" data-name="BENEFITS OF AUTOMATION" xmlns="http://www.w3.org/2000/svg" viewBox="0 0 53 49"><defs><style>.cls-3{fill-rule:evenodd}</style></defs><g id="EFFICIENCY"><circle cx="25.18" cy="25.09" r="22.34" transform="rotate(-90 25.13 25.09)" fill="#158d78" id="Ellipse_2" data-name="Ellipse 2"/><path d="M30.56 12.32a6 6 0 0 0-4.14-1.85v-.29a7.5 7.5 0 0 0-2.21-5.44 7.27 7.27 0 0 0-5.35-2.24 7.26 7.26 0 0 0-5.34 2.24 8 8 0 0 0-1.27 1.68 3.73 3.73 0 0 0-5 .31 3.74 3.74 0 0 0-1.12 2.72 4.06 4.06 0 0 0 .16 1.07 6 6 0 0 0-3.52 1.8 6.16 6.16 0 0 0-1.83 4.49 6.15 6.15 0 0 0 1.83 4.48 6 6 0 0 0 4.41 1.86H26.3a6 6 0 0 0 4.26-1.86 6.1 6.1 0 0 0 1.82-4.48 6.11 6.11 0 0 0-1.82-4.49z" fill="#fff" id="Shape_73" data-name="Shape 73"/><path class="cls-3" d="M49.5 28.6L40 27.29a6 6 0 0 1-.78-.17 6.66 6.66 0 0 1-2.33-1.43l-3.13-3.36a5.26 5.26 0 0 0-4-1.84h-.19v-.57a2.78 2.78 0 0 0 0-.37 2.08 2.08 0 0 0-.58-1.09 2.18 2.18 0 0 0-1.05-.58 1.59 1.59 0 0 0-.42 0 1.84 1.84 0 0 0-.51 0 2.12 2.12 0 0 0-1 .57 2 2 0 0 0-.58 1.09 1.31 1.31 0 0 0 0 .39v.55h-5a7.19 7.19 0 0 0-4.68 1.91l-6.19 6a4.07 4.07 0 0 0-1.06 4.27l.28.75a.56.56 0 0 0 .72.33.55.55 0 0 0 .33-.71l-.28-.74a3 3 0 0 1 .82-3.12l6.15-6a6 6 0 0 1 4-1.6h5.52a.55.55 0 0 0 .56-.55v-1.09-.18a1 1 0 0 1 .28-.51 1.11 1.11 0 0 1 .46-.27 1.16 1.16 0 0 1 .28 0 .6.6 0 0 1 .2 0 1 1 0 0 1 .48.27.93.93 0 0 1 .27.53.67.67 0 0 1 0 .17V21a.55.55 0 0 0 .56.56h.74a4.12 4.12 0 0 1 3.2 1.47l3.17 3.4a7.74 7.74 0 0 0 2.77 1.7 6 6 0 0 0 1 .22l9.5 1.31c1.59.24 1.69 1.07 1.57 1.85q-.13.9-.3 1.8a.57.57 0 0 0 .45.65h.1a.55.55 0 0 0 .55-.45c.12-.61.22-1.23.31-1.84.08-1.67-.82-2.78-2.69-3.07zm-16.79.26a.55.55 0 1 0 0-1.1H18.87a.55.55 0 1 0 0 1.1zm16 8.15a5 5 0 0 0-4.9-4 4.88 4.88 0 0 0-3.53 1.44 4.78 4.78 0 0 0-1.43 3.21h-17a4.74 4.74 0 0 0-1.43-3.21A4.89 4.89 0 0 0 16.86 33a4.89 4.89 0 0 0-3.53 1.44 4.77 4.77 0 0 0-1.41 2.71 6.61 6.61 0 0 0-.07.81 4.79 4.79 0 0 0 1.48 3.51 5 5 0 0 0 7.1 0 4.74 4.74 0 0 0 1.39-2.71h17.05a4.78 4.78 0 0 0 1.38 2.71 5 5 0 0 0 7.07 0A4.77 4.77 0 0 0 48.78 38a4.17 4.17 0 0 0-.07-.94zm-28 1.17a3.61 3.61 0 0 1-1.11 2.51 3.94 3.94 0 0 1-5.52 0A3.67 3.67 0 0 1 12.93 38a3.42 3.42 0 0 1 .06-.65 3.56 3.56 0 0 1 1.09-2.09 3.74 3.74 0 0 1 2.75-1.12 3.74 3.74 0 0 1 2.75 1.12A3.64 3.64 0 0 1 20.71 38a.74.74 0 0 1 0 .18zm25.82 2.51a3.71 3.71 0 0 1-2.74 1.13A3.74 3.74 0 0 1 41 40.69a3.69 3.69 0 0 1-1.13-2.53V38a3.84 3.84 0 0 1 3.87-3.85 3.67 3.67 0 0 1 2.72 1.12 3.61 3.61 0 0 1 1.08 2 4.38 4.38 0 0 1 .06.75 3.67 3.67 0 0 1-1.07 2.67z" id="Shape_67" data-name="Shape 67"/><path class="cls-3" d="M31.51 16.48a5.8 5.8 0 0 0-4.09-1.6.42.42 0 0 0-.16 0 5.8 5.8 0 0 0-4 1.6.42.42 0 0 0 0 .62.52.52 0 0 0 .69 0 4.77 4.77 0 0 1 3.34-1.33h.11a4.77 4.77 0 0 1 3.4 1.33l.09.09a.5.5 0 0 0 .34.13.51.51 0 0 0 .35-.13.44.44 0 0 0 0-.65zm2.89-2.4l-.16-.16a9.63 9.63 0 0 0-6.82-2.67h-.05a9.65 9.65 0 0 0-6.82 2.67l-.1.11a.43.43 0 0 0 0 .64.5.5 0 0 0 .68 0l.07-.07a8.67 8.67 0 0 1 6.14-2.4 8.66 8.66 0 0 1 6.13 2.4l.14.14a.47.47 0 0 0 .35.14.54.54 0 0 0 .34-.12.44.44 0 0 0 .1-.68zm-1.52 1.11a7.74 7.74 0 0 0-5.48-2.14h-.12a7.73 7.73 0 0 0-5.38 2.14v.05a.44.44 0 0 0 0 .64.51.51 0 0 0 .69 0l.06-.06A6.68 6.68 0 0 1 27.29 14h.11a6.66 6.66 0 0 1 4.8 1.88l.12.1a.49.49 0 0 0 .34.14A.48.48 0 0 0 33 16a.43.43 0 0 0 0-.64z" id="Shape_68" data-name="Shape 68"/></g></svg>