<svg data-name="BENEFITS OF AUTOMATION" xmlns="http://www.w3.org/2000/svg" viewBox="0 0 53 49"><circle cx="25.8" cy="25.09" r="22.34" transform="rotate(-67.5 25.798 25.085)" fill="#158d78" data-name="Ellipse 2"/><path d="M42.16 16.56a2.77 2.77 0 0 0-3.88.09 2.69 2.69 0 0 0 .09 3.84L42 23.9H9.31a2.71 2.71 0 1 0 0 5.42H42l-3.64 3.42a2.68 2.68 0 0 0-.09 3.83 2.78 2.78 0 0 0 3.88.1l10.72-10.06z" fill-rule="evenodd" fill="#fff" data-name="Shape 65"/><path d="M37.45 38.93l-3.87-6.83a2.81 2.81 0 0 0-2.39-1.35H28a.52.52 0 0 0 0 1h3.24a1.76 1.76 0 0 1 1.49.84l3.86 6.82a.52.52 0 0 0 .45.26.48.48 0 0 0 .26-.07.52.52 0 0 0 .15-.67zm-5.81-4.79h-5.95c-.78 0-.84-.15-1.07-1.3 0-.17-.07-.36-.12-.55-.31-1.44-1.16-6-1.29-6.92a1 1 0 0 1 .09-.75 1 1 0 0 1 .7-.18h.56c1 0 1.14.42 1.54 1.75.07.23.14.47.21.68l.69 2.66h4.93a.52.52 0 1 0 0-1h-4.14l-.48-1.91c-.08-.24-.14-.47-.21-.69-.38-1.28-.75-2.49-2.54-2.49H24a1.84 1.84 0 0 0-1.48.53 1.91 1.91 0 0 0-.34 1.57c.13 1 1 5.56 1.31 7 0 .19.07.37.11.53.21 1.1.42 2.15 2.09 2.15h5.36l3.23 5.4a.53.53 0 0 0 .45.25.52.52 0 0 0 .45-.79zm-6.82-11.4a3 3 0 0 0 2.18-.88 3.05 3.05 0 0 0 0-4.33 3 3 0 0 0-2.16-.92 3 3 0 0 0-2.14.88 3.06 3.06 0 0 0 2.12 5.25zm-1.39-4.51a2 2 0 0 1 1.41-.58 2 2 0 0 1 1.43.61 2 2 0 0 1 0 2.86 2 2 0 0 1-1.43.58 2 2 0 0 1-1.4-3.47zM31.32 37a.51.51 0 0 0-.7.22A6.83 6.83 0 1 1 21.41 28a.52.52 0 0 0-.48-.93 7.87 7.87 0 1 0 10.61 10.66.53.53 0 0 0-.22-.73zm-17.45-3a.54.54 0 0 0-.16-.26L9.27 30v-2.71L12.35 30a.55.55 0 0 0 .35.12.52.52 0 0 0 .34-.91L9.27 25.9v-2.25c0-1.37-.9-1.79-1.76-2.2L7 21.21a3.7 3.7 0 0 0-3.79 0 15.7 15.7 0 0 0-2 1.37 2.57 2.57 0 0 0-.87 2v4.35a.52.52 0 0 0 1 0v-4.36a1.59 1.59 0 0 1 .5-1.18 13.41 13.41 0 0 1 1.87-1.27 2.71 2.71 0 0 1 2.8 0c.18.1.36.18.53.26.88.42 1.16.58 1.16 1.26v6.59a.53.53 0 0 0 .19.4l4.5 3.85 1.95 7.1a.51.51 0 0 0 .5.38.36.36 0 0 0 .14 0 .52.52 0 0 0 .36-.64zm-2.66 1.29a.55.55 0 0 0-.23-.29l-5.14-2.88a2.79 2.79 0 0 1-1.19-2.28v-6.19a.52.52 0 0 0-1 0v6.19A3.81 3.81 0 0 0 4 31.6L.35 41.26a.53.53 0 0 0 .3.68.63.63 0 0 0 .19 0 .53.53 0 0 0 .49-.33l3.46-9.06a4 4 0 0 0 .49.42l1.13.65L3 41.24a.52.52 0 1 0 1 .42l3.37-7.49 3 1.7 1.91 5.75a.53.53 0 0 0 .5.35.45.45 0 0 0 .16 0 .52.52 0 0 0 .33-.66zM8.09 20.21a3.16 3.16 0 1 0-3.16-3.16 3.15 3.15 0 0 0 3.16 3.16zm0-5.27A2.12 2.12 0 1 1 6 17.05a2.12 2.12 0 0 1 2.09-2.11z" fill-rule="evenodd" data-name="Shape 64"/></svg>