<svg data-name="BENEFITS OF AUTOMATION" xmlns="http://www.w3.org/2000/svg" viewBox="0 0 53 49"><circle cx="27.63" cy="25.09" r="22.33" fill="#158d78" data-name="Ellipse 2"/><path d="M37.44 14.23a3.55 3.55 0 0 0-5.07 0L16.54 30.31l-7.7-7.83a3.54 3.54 0 0 0-5.06 0 3.68 3.68 0 0 0 0 5.15L14 38a3.57 3.57 0 0 0 2.54 1.06A3.55 3.55 0 0 0 19.07 38l18.37-18.62a3.68 3.68 0 0 0 0-5.15z" fill="#fff" data-name="Shape 72"/><path d="M33.68 29.86H30a3 3 0 0 1-3.11-2.64l-1.25-5.55a.55.55 0 0 0-1.07.24l1.25 5.51v.08A4 4 0 0 0 30 31h3.67a.55.55 0 0 0 .55-.55.55.55 0 0 0-.54-.59zm-6.27-12.78a2.69 2.69 0 0 0 1.4.37 2.53 2.53 0 0 0 .68-.07 2.59 2.59 0 0 0 .42-.14 3.61 3.61 0 0 0 .44-.23 2.93 2.93 0 0 0 .48-.39 2.89 2.89 0 0 0 0-4.05 2.76 2.76 0 0 0-2-.83A2.83 2.83 0 0 0 26 14.59a2.75 2.75 0 0 0 .82 2 2.82 2.82 0 0 0 .59.49zm.17-3.73a1.76 1.76 0 0 1 2.48 0 1.79 1.79 0 0 1 0 2.49l-.31.25a2.29 2.29 0 0 1-.27.14l-.25.08a2.68 2.68 0 0 1-.43.05 1.68 1.68 0 0 1-.86-.23 1.9 1.9 0 0 1-.37-.28 1.72 1.72 0 0 1-.5-1.26 1.69 1.69 0 0 1 .51-1.24zm21.91-1.26a.55.55 0 0 0-.47-.52 32.51 32.51 0 0 1-16.67-7.39.53.53 0 0 0-.69 0A32.51 32.51 0 0 1 15 11.57a.56.56 0 0 0-.47.53v1.65A34.78 34.78 0 0 0 24.9 39.07a37 37 0 0 0 6.82 5.46.51.51 0 0 0 .29.08.5.5 0 0 0 .28-.08 37.31 37.31 0 0 0 6.82-5.46 34.78 34.78 0 0 0 10.42-25.32c0-.56-.01-1.11-.04-1.66zM38.34 38.3A36.81 36.81 0 0 1 32 43.42a36.5 36.5 0 0 1-6.34-5.12 33.73 33.73 0 0 1-10.1-24.55v-1.16A33.66 33.66 0 0 0 32 5.31a33.49 33.49 0 0 0 16.41 7.28v1.16A33.73 33.73 0 0 1 38.34 38.3zm-2-13.89h-.07a.55.55 0 0 0-.05-1l-4-1.19-.59-2.61A2.5 2.5 0 0 0 30.5 18a2.54 2.54 0 0 0-1.93-.35A2.53 2.53 0 0 0 27 18.76a2.52 2.52 0 0 0-.33 2l.13.61v.07l1.2 5.49a2.09 2.09 0 0 0 2 1.81h4.7v5a1.79 1.79 0 0 0 1.79 1.77 1.81 1.81 0 0 0 1.8-1.78v-7.36a1.93 1.93 0 0 0-.58-1.37 1.9 1.9 0 0 0-1.37-.59zm.87 9.29a.65.65 0 0 1-.21.49.67.67 0 0 1-.5.21.62.62 0 0 1-.49-.21.64.64 0 0 1-.21-.47V28.2a.55.55 0 0 0-.55-.55h-5.19a1 1 0 0 1-1-.91l-1.26-5.56v-.08l-.13-.57a1.48 1.48 0 0 1 .17-1.11.1.1 0 0 0 0-.05 1.41 1.41 0 0 1 .89-.64 1.48 1.48 0 0 1 1.14.19 1.52 1.52 0 0 1 .66.95l.65 2.87a.55.55 0 0 0 .38.41l4.24 1.27h-3.51a.55.55 0 1 0 0 1.09h4a.91.91 0 0 1 .62.27.84.84 0 0 1 .27.62z" data-name="Shape 71"/></svg>