<svg id="Layer_1" data-name="Layer 1" xmlns="http://www.w3.org/2000/svg" viewBox="0 0 149.8 39.8"><defs><style>.cls-1{fill:#0055a4}</style></defs><path class="cls-1" d="M5.7 20.8c0 3.6 1.3 5.3 4 5.3 2.5 0 4-1.6 4-4.8V9.8H18v11.5c0 6-3.3 9.2-8.4 9.2s-8.5-3.2-8.5-9.2V9.8h4.7v11zM37.5 14h-6.4V9.8h17.6V14h-6.4v15.9h-4.8V14zM66.3 23.5l2.6-6.2v-8L58.8 29.9h4.8l1.3-2.9h4v-3.5zm2.6-6.2l2.6 6.2h-2.6V27H73l1.3 2.9h5l-10-20.7H69l-.1.2z"/><path fill="#ec1c24" d="M93 9.6h56v10H93z"/><path class="cls-1" d="M93 23.6h56v6H93z"/><path class="cls-1" d="M120.9.9a19 19 0 0 0-16 8.8h4.9a15.09 15.09 0 1 1-.2 20.2h-4.8a19 19 0 0 0 35.1-10 18.93 18.93 0 0 0-19-19M144.7 32h.3c0 .2 0 .3.1.3s.2.1.4.1a.37.37 0 0 0 .3-.1c.1 0 .1-.1.1-.2s-.2-.3-.5-.3a1.69 1.69 0 0 0-.5-.2c-.1 0-.1-.2-.1-.3s0-.3.2-.4.3-.2.5-.2a.76.76 0 0 1 .5.2c.2.1.2.2.2.4h-.2c0-.1-.1-.2-.2-.3a.5.5 0 0 0-.6 0c-.1.1-.1.1-.1.2s.2.3.5.3h.1c.2.1.3.1.4.2a.35.35 0 0 1 .1.2v.2c0 .2-.1.3-.2.5s-.3.2-.5.2a1.42 1.42 0 0 1-.6-.2c-.2-.2-.2-.3-.2-.6M146.7 31v1.7h-.2v-1.9h.4l.5 1.5.5-1.5h.4v1.9h-.2v-1.5l-.5 1.5h-.2l-.5-1.5c-.2 0-.2-.1-.2-.2"/></svg>