<svg id="Layer_1" data-name="Layer 1" xmlns="http://www.w3.org/2000/svg" viewBox="0 0 673.33 185.28"><defs><style>.cls-1{fill:#253d85}.cls-2{fill:#ee7623}</style></defs><path class="cls-1" d="M206.87 151.1h4.1l-6.04 11.71 16.45-11.71h5.59l-14.22 9.89 2.64 13.26h-4.5l-1.98-10.85-6.75 4.7-3.14 6.15h-4.1l11.95-23.15z"/><path class="cls-1" d="M226.42 171.37a8.78 8.78 0 0 0 4.88-1.68l1.29 2.54a12.76 12.76 0 0 1-7.38 2.42c-4.86 0-7.21-3-6.05-7.64 1.28-5.16 6.82-10.58 12.91-10.58 4.46 0 6.24 3 5.3 6.78a13.11 13.11 0 0 1-1.68 3.7H223c-.65 2.64.45 4.46 3.43 4.46m6.72-7.11a5.19 5.19 0 0 0 .47-1.22c.45-1.82-.23-3.34-2.65-3.34-2.71 0-5.37 1.92-6.88 4.56zM245.63 171.37a8.76 8.76 0 0 0 4.88-1.68l1.29 2.54a12.76 12.76 0 0 1-7.38 2.42c-4.86 0-7.21-3-6-7.64 1.27-5.16 6.82-10.58 12.9-10.58 4.47 0 6.24 3 5.3 6.78a12.83 12.83 0 0 1-1.68 3.7H242.2c-.65 2.64.45 4.46 3.43 4.46m6.72-7.11a4.78 4.78 0 0 0 .47-1.22c.45-1.82-.23-3.34-2.65-3.34-2.71 0-5.37 1.92-6.88 4.56zM263.49 156.79h4l-1.2 2.31c2-1.58 4-2.67 6.25-2.67 3.9 0 6.11 2.84 5 7.47-1.53 6.18-7.34 10.71-12.37 10.71-3.08 0-4.45-1.52-5-3.47l-4.33 8.4h-4zm9.77 7.41c.67-2.68-.58-4.33-3.06-4.33-3.21 0-7.07 3.2-8 6.91-.63 2.54.69 4.43 3.3 4.43 3.27 0 6.8-3.14 7.75-7M284.56 156.79h4l-9 17.46h-4zm3.19-6.48h4.33l-2 3.8h-4.3zM293.12 156.79h4L296 159c1.73-1.39 3.72-2.61 5.94-2.61 3.24 0 4.82 2 4 5.22a16.25 16.25 0 0 1-1.29 3.08l-4.88 9.52h-4l5-9.69a7.69 7.69 0 0 0 .7-1.75c.43-1.76-.44-2.75-2.36-2.75-2.25 0-4.54 1.79-5.88 4.37l-5.08 9.82h-4zM301.59 176.93l2.9-2.78a8.76 8.76 0 0 0 6 2.22 7.2 7.2 0 0 0 4.65-1.56 10.85 10.85 0 0 0 2.7-3.54l.56-1.05c-2.24 1.68-4.2 2.64-6.64 2.64-3.44 0-6.16-2.25-5.15-6.31 1.44-5.83 7.3-10.12 12.16-10.12 3.31 0 4.37 1.71 4.88 3.5l1.61-3.14h4l-7.41 14.42c-1.64 3.17-2.76 4.63-4.44 5.95a11.36 11.36 0 0 1-7.49 2.45c-3.41 0-6.47-1-8.3-2.68m20-13.2c.55-2.21-.69-3.9-3.27-3.9a8.24 8.24 0 0 0-7.37 6c-.62 2.48.86 3.74 3.1 3.74a8.43 8.43 0 0 0 7.54-5.86M336.43 167a15.23 15.23 0 0 1 1.44-3.67l6.26-12.21h4.07l-6.57 12.77a11.67 11.67 0 0 0-1 2.54c-.65 2.62.55 4.47 3.75 4.47a7.55 7.55 0 0 0 4.77-1.76 14.37 14.37 0 0 0 3.75-4.86l6.8-13.16h4.06l-7.11 13.79a20.64 20.64 0 0 1-5.3 6.85 12.85 12.85 0 0 1-8.29 2.87c-5.42 0-7.84-2.94-6.67-7.63M359.25 171.11a8.45 8.45 0 0 1 .79-2l4.55-8.86h-2.22l1.78-3.44h2.21l2.48-4.79h4l-2.48 4.79H375l-1.78 3.44h-4.66l-4.34 8.43a7.53 7.53 0 0 0-.38 1c-.22.9.26 1.36 1.42 1.36a7.9 7.9 0 0 0 2.69-.56l-1.79 3.47a9.09 9.09 0 0 1-3.43.63c-2.81 0-4-1.36-3.51-3.44M370.78 169.82c1-4 4.83-6.29 9.32-6.29a14.35 14.35 0 0 1 5 .87l.18-.37a5.74 5.74 0 0 0 .55-1.39c.38-1.55-.49-2.58-3.17-2.58a14.89 14.89 0 0 0-5 1l.16-3.3a18.74 18.74 0 0 1 6.54-1.19c4.6 0 6.51 2 5.67 5.42a10.73 10.73 0 0 1-1 2.48l-5 9.82h-3.94l1.16-2.28a9.64 9.64 0 0 1-6.31 2.64c-3 0-4.85-1.88-4.13-4.79m12.72-2.25l.39-.76a11.87 11.87 0 0 0-3.81-.66c-2.67 0-4.62 1.32-5.07 3.14-.38 1.52.47 2.38 2.19 2.38a7.84 7.84 0 0 0 6.3-4.1M399.83 150.11h4l-4.59 8.89c1.73-1.39 3.72-2.61 5.94-2.61 3.24 0 4.82 2 4 5.22a16.93 16.93 0 0 1-1.29 3.08l-4.89 9.56h-4l5-9.69a7.69 7.69 0 0 0 .7-1.75c.44-1.75-.44-2.75-2.36-2.75-2.25 0-4.55 1.79-5.88 4.37l-5.08 9.82h-4zM427.59 151.1h4.14l1.32 10.95 12.63-10.95h4.66l-11.95 23.15h-4.13l8.58-16.6-12.89 10.91h-.13l-1.58-10.84-8.53 16.53h-4.07l11.95-23.15zM445.79 166.68c1.32-5.32 7.1-10.25 12.72-10.25 5 0 7.37 3.37 6.22 8-1.31 5.32-7.16 10.22-12.71 10.22-5 0-7.37-3.38-6.23-8m14.95-2.15c.73-2.95-.67-4.63-3.32-4.63-3.44 0-6.86 3.54-7.63 6.64s.67 4.63 3.32 4.63c3.37 0 6.85-3.47 7.63-6.64M468.44 156.79h4.13l-1.9 12.76 11.2-12.76h4.36l-16.12 17.59h-3.61l1.94-17.59zM488.61 156.79h4l-9 17.46h-4zm3.2-6.48h4.33l-2 3.8h-4.3zM497.18 156.79h4L500 159c1.73-1.39 3.72-2.61 5.94-2.61 3.24 0 4.82 2 4 5.22a16.25 16.25 0 0 1-1.29 3.08l-4.88 9.52h-4l5-9.69a7.69 7.69 0 0 0 .7-1.75c.43-1.76-.44-2.75-2.36-2.75-2.25 0-4.55 1.79-5.88 4.37l-5.08 9.82h-4zM505.65 176.93l2.9-2.78a8.76 8.76 0 0 0 6 2.22 7.22 7.22 0 0 0 4.65-1.56 10.7 10.7 0 0 0 2.69-3.54l.56-1.05c-2.23 1.68-4.19 2.64-6.64 2.64-3.44 0-6.15-2.25-5.15-6.31 1.45-5.83 7.31-10.12 12.17-10.12 3.3 0 4.37 1.71 4.88 3.5l1.61-3.14h4l-7.41 14.42c-1.64 3.17-2.76 4.63-4.45 5.95a11.32 11.32 0 0 1-7.48 2.45c-3.41 0-6.47-1-8.3-2.68m20-13.2c.55-2.21-.69-3.9-3.27-3.9a8.25 8.25 0 0 0-7.38 6c-.61 2.48.86 3.74 3.11 3.74a8.43 8.43 0 0 0 7.54-5.86"/><path class="cls-2" d="M96.63 147.77H24.52L9.41 174.56h71.16l16.06-26.79zM86.2 174.56h41.7l16.06-26.79h-41.7L86.2 174.56zM149.59 147.77l-16.06 26.79h34.33l15.26-26.79h-33.53z"/><path d="M629.81 9.16H472.29c-28.34.07-60.39 6.23-84.84 24.06-5.62-17.65-25.73-24.13-54-24.06H184.4l-14.88 26.71H201l-34.84 62.24-72.81.16 50-89.11h-42.11l-55.66 97.71c-5.21 9.13 2.84 20.6 14.44 20.6h130.74l52.32-91.9h76.53c9.69 0 17.37 2.56 21.63 7.27 4.88 5.42 5 13.35.28 21.74-9.8 17.49-36.63 31.77-59.81 31.82h-7.37l28.17-50.25h-42.06l-45.51 81.3h53.25c28.33-.07 60.05-11.13 84.56-29 5.6 17.61 26 28.6 54.28 28.53 44.23-.11 95.3-27.12 113.85-60.21 6.28-11.2 8.29-22.23 6-31.85h26.42l-51.34 91.73 42.05-.11L595.31 35h73.43zM480.28 64.31C470.5 81.77 443.71 96 420.57 96.08c-9.68 0-17.34-2.55-21.59-7.26-4.88-5.41-5-13.32-.28-21.7 9.78-17.46 36.57-31.71 59.71-31.77 9.68 0 17.35 2.55 21.59 7.26 4.88 5.41 5 13.32.28 21.7" fill="#5a87c6"/></svg>