<svg xmlns="http://www.w3.org/2000/svg" width="801" height="768"><path fill-rule="evenodd" fill="#0F5DA6" d="M95.317.266a438.845 438.845 0 0 0-2.25 42.042c-1.683 302.687 307.937 551.11 691.554 554.868 5.466.053 10.912.043 16.348-.003V.266H95.317z"></path><path fill-rule="evenodd" fill="#0F5DA6" d="M732.785 767.477c22.996.224 45.735-.425 68.202-1.829v-77.811c-7.979.13-15.979.196-24.021.118-393.019-3.838-710.227-257.572-708.503-566.73.231-41.663 6.293-82.191 17.486-121.15H37.985C13.698 56.963.343 117.876-.01 181.315c-1.782 319.76 326.301 582.193 732.795 586.162z"></path></svg>